<?xml version="1.0" encoding="UTF-8"?>
<!DOCTYPE svg PUBLIC "-//W3C//DTD SVG 1.1//EN" "http://www.w3.org/Graphics/SVG/1.1/DTD/svg11.dtd">
<!-- Creator: CorelDRAW -->
<svg xmlns="http://www.w3.org/2000/svg" xml:space="preserve" width="300mm" height="200mm" version="1.1" style="shape-rendering:geometricPrecision; text-rendering:geometricPrecision; image-rendering:optimizeQuality; fill-rule:evenodd; clip-rule:evenodd"
viewBox="0 0 30000 20000"
 xmlns:xlink="http://www.w3.org/1999/xlink"
 xmlns:xodm="http://www.corel.com/coreldraw/odm/2003">
 <defs>
  <style type="text/css">
   <![CDATA[
    .fil1 {fill:#C5C6C6}
    .fil0 {fill:#898989}
    .fil3 {fill:#E31E24}
    .fil4 {fill:#009846}
    .fil2 {fill:#393185}
   ]]>
  </style>
 </defs>
 <g id="Слой_x0020_1">
  <metadata id="CorelCorpID_0Corel-Layer"/>
  <path class="fil0" d="M8949 7360.42c1531.4,0 2772.84,1241.44 2772.84,2772.84 0,1531.41 -1241.44,2772.85 -2772.84,2772.85 -1531.41,0 -2772.85,-1241.44 -2772.85,-2772.85 0,-1531.4 1241.44,-2772.84 2772.85,-2772.84z"/>
  <path class="fil1" d="M8948.99 7360.42c1531.4,0 2772.85,1241.45 2772.85,2772.85 0,1531.39 -1241.45,2772.84 -2772.85,2772.84 -1531.39,0 -2772.84,-1241.45 -2772.84,-2772.84 0,-1531.4 1241.45,-2772.85 2772.84,-2772.85zm0 282.68c1375.28,0 2490.17,1114.89 2490.17,2490.17 0,1375.27 -1114.89,2490.16 -2490.17,2490.16 -1375.27,0 -2490.16,-1114.89 -2490.16,-2490.16 0,-1375.28 1114.89,-2490.17 2490.16,-2490.17z"/>
  <path class="fil2" d="M8940.72 8906.95l136.02 416.8c-177.85,588.84 -20.9,1130.7 200.14,1389.89l-434.79 0c-404.42,-509.07 -469.21,-1283.19 98.63,-1806.69z"/>
  <path class="fil2" d="M9375.01 8764.97c148.15,423.85 311.16,896.32 469.46,1353.38 -42.98,214.84 -100.7,410.7 -168.02,595.29l-374.44 0c-290.14,-340.21 -469.99,-1167.4 73,-1948.67z"/>
  <path class="fil2" d="M10448.27 10713.64c-4.43,-483.39 -113.51,-974.01 -494.27,-1463.21 -0.53,596.87 -102.14,1057.29 -250.19,1463.21l744.46 0z"/>
  <path class="fil2" d="M8207.85 9048.63c-308.75,165.06 -1146.78,453.92 -547.32,1526.82 75.18,-98.58 237.57,-186.84 469.13,-151.31 -244.59,-314.07 -531.29,-820.72 78.19,-1375.51z"/>
  <path class="fil3" d="M10231.44 10875.23l104.85 128.51 -53.58 0 -79.2 -99.75 -79.54 99.75 -52.25 0 105.66 -128.51 -97.45 -117.99 53.9 0 71.32 89.24 70.67 -89.24 52.25 0 -96.63 117.99zm-1213.69 595.78l276.65 0 0 24.63 -322.22 0 0 -23.15 155.69 -101.99c31.86,-20.86 56.66,-38.59 74.31,-53.21 17.66,-14.62 30.55,-28.58 38.68,-41.79 8.13,-13.23 12.15,-27.35 12.15,-42.46 0,-17.74 -4.93,-33.25 -14.78,-46.56 -9.85,-13.3 -23.73,-23.56 -41.63,-30.79 -17.9,-7.23 -38.51,-10.84 -61.84,-10.84 -27.26,0 -50.58,4.35 -70.04,13.06 -19.46,8.7 -34.57,20.69 -45.24,36.04 -10.68,15.36 -16.92,33.18 -18.73,53.38l-27.59 0c1.97,-24.96 10.02,-47.05 24.15,-66.27 14.12,-19.21 33.09,-34.16 56.82,-44.83 23.73,-10.68 50.58,-16.01 80.63,-16.01 28.74,0 54.28,4.68 76.54,14.12 22.25,9.44 39.49,22.75 51.81,39.83 12.32,17.08 18.47,36.7 18.47,58.87 0,17.74 -4.1,34.08 -12.31,49.03 -8.21,14.94 -21.68,30.46 -40.48,46.55 -18.81,16.1 -45.25,35.15 -79.25,57.16l-131.79 85.23zm509.19 30.55c-37.93,0 -70.7,-7.89 -98.29,-23.65 -27.59,-15.77 -48.61,-38.02 -63.14,-66.76 -14.54,-28.74 -21.85,-62.16 -21.85,-100.26 0,-38.1 7.31,-71.53 21.85,-100.27 14.53,-28.74 35.55,-50.99 63.14,-66.75 27.59,-15.77 60.36,-23.65 98.29,-23.65 37.94,0 70.7,7.88 98.29,23.65 27.6,15.76 48.7,38.01 63.23,66.75 14.54,28.74 21.76,62.17 21.76,100.27 0,38.26 -7.22,71.76 -21.76,100.5 -14.53,28.75 -35.55,50.92 -63.06,66.6 -27.51,15.68 -60.36,23.57 -98.46,23.57zm0 -24.64c32.19,0 59.87,-6.57 83.02,-19.71 23.16,-13.13 40.89,-32.18 53.21,-57.06 12.32,-24.89 18.48,-54.61 18.48,-89.26 0,-34.66 -6.16,-64.46 -18.48,-89.34 -12.32,-24.89 -30.05,-43.85 -53.21,-56.99 -23.15,-13.14 -50.83,-19.71 -83.02,-19.71 -32.19,0 -59.86,6.57 -83.02,19.71 -23.15,13.14 -40.89,32.1 -53.2,56.99 -12.32,24.88 -18.48,54.68 -18.48,89.34 0,34.65 6.16,64.37 18.48,89.26 12.31,24.88 30.05,43.93 53.2,57.06 23.16,13.14 50.83,19.71 83.02,19.71zm281.08 -5.91l276.65 0 0 24.63 -322.22 0 0 -23.15 155.69 -101.99c31.86,-20.86 56.66,-38.59 74.31,-53.21 17.66,-14.62 30.55,-28.58 38.68,-41.79 8.13,-13.23 12.15,-27.35 12.15,-42.46 0,-17.74 -4.93,-33.25 -14.78,-46.56 -9.85,-13.3 -23.73,-23.56 -41.63,-30.79 -17.9,-7.23 -38.51,-10.84 -61.84,-10.84 -27.26,0 -50.58,4.35 -70.04,13.06 -19.46,8.7 -34.57,20.69 -45.24,36.04 -10.68,15.36 -16.92,33.18 -18.73,53.38l-27.59 0c1.97,-24.96 10.02,-47.05 24.15,-66.27 14.12,-19.21 33.09,-34.16 56.82,-44.83 23.73,-10.68 50.58,-16.01 80.63,-16.01 28.74,0 54.28,4.68 76.53,14.12 22.26,9.44 39.5,22.75 51.82,39.83 12.32,17.08 18.47,36.7 18.47,58.87 0,17.74 -4.1,34.08 -12.31,49.03 -8.21,14.94 -21.68,30.46 -40.48,46.55 -18.81,16.1 -45.25,35.15 -79.25,57.16l-131.79 85.23zm492.93 -218.75c31.54,0 58.39,5.5 80.48,16.5 22.09,11.01 38.75,25.95 50,44.84 11.25,18.88 16.84,39.99 16.84,63.31 0,24.3 -6.57,45.9 -19.71,64.78 -13.14,18.89 -31.61,33.59 -55.43,44.1 -23.81,10.51 -51.16,15.77 -82.03,15.77 -31.53,0 -59.04,-4.77 -82.53,-14.29 -23.48,-9.53 -42.28,-22.67 -56.41,-39.33 -14.12,-16.67 -23.48,-35.72 -28.08,-57.24l27.59 0c4.11,17.57 12.23,32.77 24.39,45.66 12.15,12.89 28,22.91 47.54,29.97 19.55,7.06 42.04,10.59 67.5,10.59 25.46,0 47.96,-4.19 67.42,-12.48 19.46,-8.29 34.48,-19.95 45.16,-35.06 10.67,-15.11 16.01,-32.6 16.01,-52.47 0,-19.88 -4.92,-37.37 -14.78,-52.47 -9.85,-15.11 -23.73,-26.86 -41.63,-35.15 -17.9,-8.29 -38.68,-12.4 -62.33,-12.4 -20.69,0 -40.07,3.04 -58.13,9.2 -18.07,6.16 -33.84,14.28 -47.3,24.3 -13.47,10.02 -24.47,20.86 -33.01,32.52l-19.21 0 24.63 -216.78 250.28 0 0 24.63 -228.11 0 -17.49 151.75c15.11,-15.11 33.91,-27.26 56.33,-36.46 22.42,-9.19 46.39,-13.79 72.01,-13.79zm-2340.86 108.53c-27.72,0 -52.26,-5.36 -73.68,-16.05 -21.41,-10.67 -38.06,-25.68 -49.89,-45.07 -11.84,-19.4 -17.75,-41.64 -17.75,-66.73 0,-25.08 5.91,-47.32 17.75,-66.71 11.83,-19.39 28.48,-34.45 49.89,-45.14 21.42,-10.68 45.96,-15.99 73.68,-15.99 27.72,0 52.31,5.31 73.73,15.99 21.41,10.69 38.01,25.75 49.85,45.14 11.83,19.39 17.74,41.63 17.74,66.71 0,25.09 -5.91,47.33 -17.74,66.73 -11.84,19.39 -28.44,34.4 -49.85,45.07 -21.42,10.69 -46.01,16.05 -73.73,16.05zm0 -38.78c19.72,0 36.92,-3.61 51.54,-10.84 14.63,-7.23 25.91,-17.59 33.86,-31 7.94,-13.43 11.88,-29.15 11.88,-47.23 0,-18.07 -3.94,-33.85 -11.88,-47.27 -7.95,-13.41 -19.23,-23.71 -33.86,-30.94 -14.62,-7.24 -31.82,-10.85 -51.54,-10.85 -19.72,0 -36.86,3.61 -51.49,10.85 -14.63,7.23 -25.91,17.53 -33.85,30.94 -7.94,13.42 -11.94,29.2 -11.94,47.27 0,18.08 4,33.8 11.94,47.23 7.94,13.41 19.22,23.77 33.85,31 14.63,7.23 31.77,10.84 51.49,10.84zm346.41 -91.2c19.17,3.18 34.01,9.47 44.48,18.9 10.46,9.42 15.66,21.58 15.66,36.48 0,14.9 -4.6,27.93 -13.8,39.17 -9.2,11.23 -22.62,19.93 -40.26,26.12 -17.64,6.19 -38.73,9.31 -63.27,9.31 -24.21,0 -45.41,-3.5 -63.59,-10.51 -18.19,-7.02 -32.43,-16.98 -42.79,-29.91 -10.35,-12.93 -16.1,-28.05 -17.2,-45.35l43.39 0c2.19,16.54 10.13,29.19 23.82,38.01 13.7,8.82 32.49,13.25 56.37,13.25 23.34,0 41.36,-3.61 54.01,-10.79 12.65,-7.17 18.95,-17.8 18.95,-31.93 0,-12.16 -5.31,-21.2 -15.99,-27.06 -10.68,-5.86 -27.5,-8.77 -50.4,-8.77l-49.3 0 0 -30.56 48.32 0c13.26,0 24.48,-1.64 33.63,-4.93 9.15,-3.29 15.94,-7.78 20.43,-13.42 4.49,-5.64 6.74,-12.11 6.74,-19.45 0,-8.43 -2.68,-15.66 -8.05,-21.63 -5.37,-5.97 -12.98,-10.47 -22.84,-13.53 -9.86,-3.07 -21.37,-4.6 -34.51,-4.6 -21.7,0 -39.11,4.21 -52.32,12.7 -13.2,8.5 -21.08,20.38 -23.6,35.61l-43.06 0c1.43,-15.78 7.12,-29.96 17.09,-42.5 9.97,-12.55 23.83,-22.41 41.58,-29.58 17.75,-7.18 38.51,-10.74 62.28,-10.74 21.58,0 40.53,2.85 56.8,8.6 16.27,5.75 28.81,13.8 37.69,24.1 8.87,10.3 13.31,22.08 13.31,35.33 0,13.58 -4.55,25.47 -13.64,35.71 -9.09,10.25 -22.4,17.59 -39.93,21.97zm153.64 20.21l-10.84 67.71 166.79 0 0 37.46 -214.94 0 19.72 -123.25 -19.72 -123.24 213.3 0 0 37.47 -165.15 0 10.84 67.7 146.42 0 0 36.15 -146.42 0zm331.79 -141.32c18.07,0 33.91,3.28 47.49,9.86 13.58,6.57 24.1,15.72 31.49,27.49 7.4,11.78 11.07,25.31 11.07,40.54 0,15.23 -3.67,28.7 -11.07,40.48 -7.39,11.78 -17.91,20.98 -31.49,27.55 -13.58,6.58 -29.42,9.86 -47.49,9.86l-87.1 0 0 90.71 -43.38 0 0 -246.49 130.48 0zm-1.65 118.32c9.75,0 18.24,-1.65 25.42,-4.94 7.17,-3.28 12.65,-7.99 16.49,-14.07 3.83,-6.08 5.75,-13.2 5.75,-21.42 0,-8.22 -1.92,-15.39 -5.75,-21.47 -3.84,-6.08 -9.32,-10.74 -16.49,-14.02 -7.18,-3.29 -15.67,-4.93 -25.42,-4.93l-85.45 0 0 80.85 85.45 0zm-834.47 -319.1l88.09 -151.68 47.32 0 -144.28 246.5 -47.32 0 31.88 -54.39 -112.74 -192.11 47.99 0 89.06 151.68zm295.8 -151.68c18.08,0 33.91,3.29 47.49,9.86 13.59,6.58 24.1,15.73 31.5,27.5 7.39,11.78 11.06,25.31 11.06,40.54 0,15.23 -3.67,28.7 -11.06,40.48 -7.4,11.77 -17.91,20.98 -31.5,27.55 -13.58,6.57 -29.41,9.86 -47.49,9.86l-87.09 0 0 90.71 -43.39 0 0 -246.5 130.48 0zm-1.64 118.32c9.75,0 18.24,-1.64 25.41,-4.93 7.18,-3.29 12.66,-8 16.49,-14.08 3.83,-6.08 5.75,-13.2 5.75,-21.41 0,-8.22 -1.92,-15.39 -5.75,-21.47 -3.83,-6.09 -9.31,-10.74 -16.49,-14.03 -7.17,-3.29 -15.66,-4.93 -25.41,-4.93l-85.45 0 0 80.85 85.45 0zm361.85 128.18l-46.34 0 -26.46 -56.53 -145.26 0 -26.46 56.53 -46.34 0 118.32 -246.5 54.22 0 118.32 246.5zm-145.43 -212.15l-55.87 119.8 111.74 0 -55.87 -119.8zm439.58 -34.35l0 246.5 -43.38 0 0 -208.04 -135.41 0c2.63,28.26 3.94,55.32 3.94,81.18 0,30.89 -2.62,55.93 -7.89,75.1 -5.25,19.17 -13.42,33.3 -24.48,42.39 -11.06,9.09 -25.47,13.64 -43.22,13.64 -6.9,0 -13.58,-0.76 -20.1,-2.24 -6.52,-1.48 -12.43,-3.57 -17.69,-6.3l0 -36.81c9.09,3.72 17.75,5.58 25.96,5.58 10.85,0 19.67,-3.34 26.46,-10.02 6.79,-6.68 11.83,-17.2 15.06,-31.49 3.23,-14.3 4.82,-32.98 4.82,-56.1 0,-30.89 -2.3,-68.69 -6.9,-113.39l222.83 0zm184.38 90.38c18.29,0 34.34,3.24 48.09,9.76 13.75,6.51 24.32,15.72 31.77,27.55 7.45,11.83 11.18,25.47 11.18,40.92 0,15.33 -3.73,28.86 -11.18,40.64 -7.45,11.78 -18.02,20.93 -31.77,27.45 -13.75,6.51 -29.8,9.8 -48.09,9.8l-129.16 0 0 -246.5 43.38 0 0 90.38 85.78 0zm-1.97 120.95c9.96,0 18.68,-1.75 26.07,-5.26 7.39,-3.5 13.04,-8.49 16.98,-14.89 3.94,-6.42 5.91,-13.92 5.91,-22.57 0,-8.66 -1.97,-16.27 -5.91,-22.79 -3.94,-6.52 -9.59,-11.5 -16.98,-15.01 -7.39,-3.51 -16.11,-5.26 -26.07,-5.26l-83.81 0 0 85.78 83.81 0zm388.8 -62.44c-2.3,20.15 -9.37,37.96 -21.2,53.41 -11.83,15.44 -27.5,27.44 -47,35.98 -19.5,8.55 -41.47,12.82 -65.89,12.82 -27.4,0 -51.55,-5.37 -72.53,-16.05 -20.98,-10.68 -37.25,-25.69 -48.81,-45.03 -11.55,-19.33 -17.36,-41.57 -17.36,-66.77 0,-25.2 5.81,-47.49 17.36,-66.82 11.56,-19.34 27.83,-34.35 48.81,-45.03 20.98,-10.68 45.13,-16 72.53,-16 24.42,0 46.39,4.27 65.89,12.82 19.5,8.55 35.17,20.54 47,35.99 11.83,15.45 18.9,33.25 21.2,53.41l-43.72 0c-2.4,-13.04 -7.61,-24.32 -15.61,-33.85 -7.99,-9.54 -18.4,-16.87 -31.22,-21.97 -12.82,-5.1 -27.44,-7.61 -43.87,-7.61 -19.18,0 -35.83,3.61 -50.01,10.84 -14.19,7.23 -25.15,17.53 -32.82,30.95 -7.67,13.42 -11.5,29.2 -11.5,47.27 0,18.08 3.83,33.8 11.5,47.22 7.67,13.42 18.63,23.77 32.82,31 14.18,7.23 30.83,10.85 50.01,10.85 16.54,0 31.22,-2.52 43.98,-7.56 12.76,-5.04 23.12,-12.32 31.11,-21.86 8,-9.53 13.21,-20.87 15.61,-34.01l43.72 0zm195.38 -44.04l90.22 141.65 -49.63 0 -68.52 -107.64 -88.91 107.64 -38.78 0 0 -246.5 43.39 0 0 185.7 151.84 -185.7 47 0 -86.61 104.85zm159.89 99.42l157.1 -204.27 56.53 0 0 246.5 -42.06 0 0 -206.23 -158.42 206.23 -55.21 0 0 -246.5 42.06 0 0 204.27z"/>
  <path class="fil2" d="M7765.6 10660.87c9,19.1 21.2,36.64 36.05,52.77l891.07 0c18.28,-33.31 35.11,-69.69 50.31,-108.63 -257.51,-375.92 -340.18,-868.57 -147.06,-1300.13 -115.94,-176.36 -280.09,-336.72 -503.79,-461.47 -11.23,101.02 -13.66,143.97 -16.89,252.54 66.13,-34.1 117.69,-55.99 171.78,-73.66 -58.49,69.29 -129.27,159.37 -177.33,222.23 -6.16,315.44 -2.43,662.25 -70.02,946.57 50.34,94.65 125.64,188.93 183.86,263.69 -98.9,-10.84 -206.28,-15.75 -280.15,7.23 -36.74,72.43 -82,139.22 -137.83,198.86z"/>
  <path class="fil4" d="M7913.57 10613.99l22.5 35.78 23.19 0 -33.11 -50.58 30.36 -35.78 -22.58 0 -49.12 60.11 0 -60.11 -19.84 0 0 86.36 18.31 0 30.29 -35.78zm396.61 -50.58l0 86.36 18.3 0 30.29 -35.78 22.51 35.78 23.19 0 -33.11 -50.58 30.36 -35.78 -22.58 0 -49.13 60.11 0 -60.11 -19.83 0zm-114.84 19.53c-4.4,6.86 -6.61,14.75 -6.61,23.65 0,8.9 2.21,16.78 6.61,23.65 4.4,6.86 10.58,12.18 18.54,15.96 7.96,3.8 17.12,5.7 27.49,5.7 10.38,0 19.55,-1.9 27.51,-5.7 7.96,-3.78 14.14,-9.1 18.54,-15.96 4.4,-6.87 6.59,-14.75 6.59,-23.65 0,-8.9 -2.19,-16.79 -6.59,-23.65 -4.4,-6.86 -10.58,-12.21 -18.54,-16 -7.96,-3.78 -17.13,-5.67 -27.51,-5.67 -10.37,0 -19.53,1.89 -27.49,5.67 -7.96,3.79 -14.14,9.14 -18.54,16zm17.5 39.44c-2.65,-4.48 -3.97,-9.74 -3.97,-15.79 0,-6 1.32,-11.24 3.97,-15.72 2.64,-4.47 6.4,-7.93 11.29,-10.37 4.88,-2.44 10.63,-3.67 17.24,-3.67 6.61,0 12.36,1.23 17.24,3.67 4.88,2.44 8.64,5.9 11.29,10.37 2.64,4.48 3.96,9.72 3.96,15.72 0,6.05 -1.32,11.31 -3.96,15.79 -2.65,4.47 -6.41,7.91 -11.29,10.32 -4.88,2.42 -10.63,3.64 -17.24,3.64 -6.61,0 -12.36,-1.22 -17.24,-3.64 -4.89,-2.41 -8.65,-5.85 -11.29,-10.32zm-140.07 -27.69c0,11.95 2.17,22.19 6.49,30.76 4.32,8.58 10.6,15.14 18.82,19.66 8.21,4.53 18.02,6.79 29.47,6.79 9.86,0 18.56,-1.73 26.06,-5.16 7.51,-3.43 13.3,-8.32 17.4,-14.65 4.09,-6.33 6.12,-13.65 6.12,-21.99 0,-7.94 -1.83,-14.95 -5.51,-21.06 -3.69,-6.1 -8.9,-10.83 -15.62,-14.19 -6.71,-3.36 -14.41,-5.03 -23.11,-5.03 -10.02,0 -18.82,2.24 -26.42,6.71 -7.61,4.48 -13.2,10.76 -16.76,18.84l0 -0.99c0,-13.78 3.46,-24.39 10.38,-31.81 6.91,-7.43 17.19,-11.47 30.82,-12.13 10.88,-0.56 19.27,-1.22 25.17,-1.98 5.9,-0.76 10.32,-1.78 13.27,-3.05l0 -16.94c-2.74,1.02 -5.56,1.81 -8.46,2.39 -2.9,0.58 -6.84,1.14 -11.83,1.68 -4.98,0.53 -12.36,1.22 -22.12,2.03 -11.55,0.97 -21.36,3.92 -29.45,8.88 -8.08,4.96 -14.21,11.77 -18.41,20.42 -4.19,8.64 -6.31,18.92 -6.31,30.82zm27.21 28.93c-3.17,-4.09 -5.34,-8.9 -6.46,-14.44 2.95,-7.78 7.46,-13.83 13.51,-18.13 6.05,-4.3 13.04,-6.44 20.98,-6.44 5.8,0 10.88,1.08 15.25,3.21 4.38,2.14 7.76,5.14 10.15,9.03 2.39,3.89 3.59,8.42 3.59,13.55 0,5.14 -1.2,9.66 -3.59,13.58 -2.39,3.92 -5.77,6.94 -10.15,9.1 -4.37,2.17 -9.45,3.26 -15.25,3.26 -5.9,0 -11.24,-1.09 -16.05,-3.28 -4.8,-2.19 -8.8,-5.34 -11.98,-9.44zm-139.8 -60.21l39.67 83.61 7.85 0 -0.99 2.13c-2.03,4.48 -4.65,7.71 -7.85,9.69 -3.21,1.99 -7,2.98 -11.37,2.98 -4.28,0 -8.17,-0.56 -11.67,-1.65 -3.51,-1.1 -7.25,-2.88 -11.22,-5.37l0 15.1c7.58,4.79 16.02,7.18 25.33,7.18 14.6,0 25.28,-7.07 32.04,-21.21l44.7 -92.46 -21.05 0 -31.97 70.49 -31.65 -70.49 -21.82 0z"/>
 </g>
</svg>
